<?xml version="1.0" encoding="utf-8"?>
<!-- Generator: Adobe Illustrator 24.3.0, SVG Export Plug-In . SVG Version: 6.00 Build 0)  -->
<svg version="1.1" id="Ebene_1" xmlns="http://www.w3.org/2000/svg" xmlns:xlink="http://www.w3.org/1999/xlink" x="0px" y="0px"
	 viewBox="0 0 24 24" style="enable-background:new 0 0 24 24;" xml:space="preserve">
<g>
	<g>
		<defs>
			<path id="SVGID_1_" d="M2.2,13.4L2.2,13.4C1.7,14.1,2.2,15,3,15h7.9L10,21.9c-0.1,1,1.1,1.5,1.8,0.8l10-12l0.1-0.1
				C22.3,9.9,21.8,9,21,9h-7.9L14,2.1c0.1-1-1.1-1.5-1.8-0.8L2.2,13.4L2.2,13.4z M11.6,5.3L11,9.9l0,0.1c0,0.5,0.4,1,1,1h6.9
				l-6.4,7.7l0.6-4.6l0-0.1c0-0.5-0.4-1-1-1H5.1L11.6,5.3L11.6,5.3z"/>
		</defs>
		<use xlink:href="#SVGID_1_"  style="overflow:visible;fill-rule:evenodd;clip-rule:evenodd;fill:#193251;"/>
		<clipPath id="SVGID_2_">
			<use xlink:href="#SVGID_1_"  style="overflow:visible;"/>
		</clipPath>
	</g>
</g>
</svg>
